#!OML:ASF F:\VICON\USERDATA\INSTALL\rory3\rory3.ASF
:FULLY-SPECIFIED
:DEGREES
248
root -7.64602 16.2297 -11.0287 375.763 -2.90064 1.15743
lowerback -6.7311 -6.02321 2.34305
upperback -7.25749 -8.11196 1.91159
thorax -3.8327 -4.14104 0.425432
lowerneck -11.8213 -2.05494 -1.4114
upperneck 32.3802 -4.59718 4.95334
head 12.9156 -1.66164 1.48359
rclavicle -5.56721e-014 7.55382e-015
rhumerus -47.7269 -21.4723 -10.8203
rradius 8.60694
rwrist 58.3955
rhand 4.8314 8.98331
rfingers 7.12502
rthumb 30.2091 -18.5659
lclavicle -5.56721e-014 7.55382e-015
lhumerus -160.897 -141 221.595
lradius 19.6621
lwrist -38.2084
lhand 4.92797 27.9404
lfingers 7.12502
lthumb 30.3013 55.4727
rfemur 138.284 -202.33 -159.158
rtibia 44.7228
rfoot -25.7427 -27.2414
rtoes 12.19
lfemur -43.9857 -13.9198 6.38671
ltibia 43.2862
lfoot -38.5165 23.7954
ltoes 23.075
249
root -7.62588 16.2141 -10.9121 376.447 -6.23911 1.19478
lowerback -6.63785 -5.8145 2.35273
upperback -7.49527 -7.8379 1.93648
thorax -4.12937 -4.01096 0.48282
lowerneck -12.6241 -2.03264 -1.50075
upperneck 32.9688 -4.61494 4.94743
head 13.3449 -1.67007 1.49277
rclavicle -9.55906e-014 -5.1684e-015
rhumerus -44.6069 -4.26838 -27.8956
rradius 10.5101
rwrist 37.9501
rhand 7.57841 8.64684
rfingers 7.12502
rthumb 32.8261 -18.3899
lclavicle -9.55906e-014 -5.1684e-015
lhumerus -162.661 -141.785 226.135
lradius 19.6689
lwrist -38.6827
lhand 5.64911 28.0708
lfingers 7.12502
lthumb 30.9889 55.4744
rfemur 137.459 -203.797 -159.886
rtibia 45.0694
rfoot -24.2113 -26.1986
rtoes 9.06845
lfemur -45.5833 -14.6987 6.62533
ltibia 43.2373
lfoot -36.8422 25.3838
ltoes 19.18
250
root -7.60416 16.2135 -10.7813 376.937 -9.55086 1.35836
lowerback -6.76892 -5.69483 2.37809
upperback -7.46823 -7.69582 1.85178
thorax -4.04115 -3.94751 0.369678
lowerneck -13.2912 -2.27359 -2.05392
upperneck 33.3184 -5.02338 5.35933
head 13.6936 -1.85992 1.68719
rclavicle 9.74449e-014 2.38542e-014
rhumerus -45.5512 9.84849 -41.5885
rradius 13.3756
rwrist 21.9861
rhand 10.0866 8.18824
rfingers 7.12502
rthumb 35.2085 -18.3189
lclavicle 9.74449e-014 2.38542e-014
lhumerus -163.426 -140.222 228.998
lradius 20.2534
lwrist -33.8952
lhand 5.89834 29.8921
lfingers 7.12502
lthumb 31.2265 57.2502
rfemur 136.857 -205.307 -160.745
rtibia 45.5175
rfoot -23.185 -25.0979
rtoes 6.37159
lfemur -46.9535 -14.4543 6.23462
ltibia 43.3247
lfoot -32.3442 27.1833
ltoes 11.9552
251
root -7.58099 16.2083 -10.6488 377.017 -12.8272 1.44246
lowerback -6.53949 -5.7448 2.37252
upperback -7.33672 -7.76516 1.90664
thorax -4.02138 -3.98253 0.442748
lowerneck -13.0747 -2.42187 -2.95585
upperneck 32.925 -5.17197 5.86757
head 13.5239 -1.99345 2.01766
rclavicle -2.70502e-014 1.98785e-015
rhumerus -48.4938 21.016 -52.7782
rradius 17.4306
rwrist 10.5557
rhand 12.3772 5.22741
rfingers 7.12502
rthumb 37.3774 -20.7386
lclavicle -2.70502e-014 1.98785e-015
lhumerus -165.042 -140.828 232.892
lradius 20.471
lwrist -31.1999
lhand 6.40353 29.5281
lfingers 7.12502
lthumb 31.7077 56.7922
rfemur 136.658 -207.087 -161.423
rtibia 45.9822
rfoot -22.3868 -24.2238
rtoes 4.08429
lfemur -47.7921 -13.1116 5.31265
ltibia 43.5114
lfoot -26.8597 27.2076
ltoes 5.53281
252
root -7.55517 16.1859 -10.5351 377.657 -17.1868 0.929357
lowerback -6.06015 -5.51394 2.4575
upperback -7.60489 -7.44437 2.30322
thorax -4.52443 -3.82359 0.882643
lowerneck -13.3511 -2.78919 -3.64973
upperneck 32.9912 -5.50555 5.6987
head 13.6495 -2.25637 2.0146
rclavicle 1.80543e-013 1.98785e-014
rhumerus -51.7153 28.8297 -60.665
rradius 21.7405
rwrist 3.65448
rhand 14.8353 4.85572
rfingers 7.12502
rthumb 39.6966 -20.4612
lclavicle 1.80543e-013 1.98785e-014
lhumerus -167.314 -140.191 236.777
lradius 21.4182
lwrist -26.5449
lhand 6.31689 29.6189
lfingers 7.12502
lthumb 31.6252 56.8993
rfemur 135.625 -209.278 -161.966
rtibia 46.5207
rfoot -21.3116 -22.7399
rtoes 1.34453
lfemur -48.4563 -10.0594 4.36683
ltibia 43.8162
lfoot -21.4115 26.2015
ltoes -3.02467
253
root -7.519 16.2019 -10.3684 377.401 -19.7989 1.18334
lowerback -5.29431 -6.0369 2.55229
upperback -7.83101 -8.11548 2.65534
thorax -5.16126 -4.15892 1.29425
lowerneck -13.1141 -3.16679 -4.93874
upperneck 33.063 -5.8471 5.90988
head 13.7037 -2.56272 2.27132
rclavicle -1.21631e-014 -1.51076e-014
rhumerus -55.6008 35.7175 -67.2767
rradius 26.6243
rwrist -1.08289
rhand 17.0286 4.78699
rfingers 7.12502
rthumb 41.7576 -19.8838
lclavicle -1.21631e-014 -1.51076e-014
lhumerus -170.049 -138.315 240.505
lradius 23.2234
lwrist -20.4665
lhand 6.37136 30.4828
lfingers 7.12502
lthumb 31.6771 57.753
rfemur 136.033 -210.473 -162.535
rtibia 47.0363
rfoot -20.9636 -22.1444
rtoes -1.48763
lfemur -49.0412 -9.36235 3.02357
ltibia 44.029
lfoot -16.8895 24.7064
ltoes -13.8596
254
root -7.4825 16.1986 -10.2433 377.686 -24.2614 1.70932
lowerback -5.22387 -5.92563 2.25961
upperback -7.84565 -7.98248 2.39463
thorax -5.21139 -4.09054 1.19472
lowerneck -12.7692 -3.56643 -6.08182
upperneck 32.5729 -6.46673 6.83394
head 13.5443 -2.88211 2.73529
rclavicle 6.00702e-014 1.98785e-014
rhumerus -58.595 40.2802 -73.0812
rradius 31.3689
rwrist -4.07478
rhand 19.2095 3.66412
rfingers 7.12502
rthumb 43.7979 -20.2937
lclavicle 6.00702e-014 1.98785e-014
lhumerus -170.725 -131.96 240.733
lradius 26.8696
lwrist -10.469
lhand 4.23545 33.2819
lfingers 7.12502
lthumb 29.6405 60.9336
rfemur 134.848 -212.375 -164.342
rtibia 47.6961
rfoot -19.9073 -20.7043
rtoes -4.03005
lfemur -49.8383 -9.87418 2.50251
ltibia 44.3331
lfoot -18.0347 23.2955
ltoes -14.6982
255
root -7.43795 16.1973 -10.0992 377.663 -28.7587 2.09936
lowerback -4.96747 -5.75283 2.26988
upperback -7.59482 -7.77162 1.93844
thorax -5.15226 -3.99955 0.734554
lowerneck -13.6935 -4.26942 -6.59298
upperneck 32.3835 -7.58825 7.54677
head 13.8288 -3.33195 2.90819
rclavicle 1.043e-013 5.96354e-015
rhumerus -60.0114 43.7476 -77.9188
rradius 35.5113
rwrist -6.14854
rhand 22.0071 5.43886
rfingers 7.12502
rthumb 46.4 -17.4872
lclavicle 1.043e-013 5.96354e-015
lhumerus -170.842 -126.46 240.281
lradius 31.162
lwrist -1.73493
lhand 8.9488 32.1076
lfingers 7.12502
lthumb 34.1286 58.8627
rfemur 134.068 -214.293 -165.801
rtibia 48.3718
rfoot -19.1345 -19.4902
rtoes -6.87564
lfemur -50.4253 -11.1041 2.66337
ltibia 44.6278
lfoot -20.7557 21.0024
ltoes -8.36703
256
root -7.38528 16.1819 -9.94744 377.645 -33.3768 2.26849
lowerback -4.34748 -5.6964 2.28921
upperback -7.45663 -7.69708 1.7181
thorax -5.38574 -3.96985 0.560848
lowerneck -13.6996 -4.81549 -6.7989
upperneck 31.733 -8.39876 7.78629
head 13.6497 -3.69516 2.88605
rclavicle -3.99309e-014 5.56597e-015
rhumerus -61.7415 47.4 -82.0088
rradius 40.7902
rwrist -7.75658
rhand 24.7569 4.24231
rfingers 7.12502
rthumb 48.9378 -17.5208
lclavicle -3.99309e-014 5.56597e-015
lhumerus -171.6 -122.366 240.509
lradius 35.6456
lwrist 5.76219
lhand 12.9386 30.4277
lfingers 7.12502
lthumb 37.9079 56.2519
rfemur 133.244 -216.341 -167.078
rtibia 49.1221
rfoot -18.6961 -18.3926
rtoes -9.3997
lfemur -50.4154 -9.40629 1.05834
ltibia 45.1217
lfoot -18.1984 19.5181
ltoes -15.6135
257
root -7.33338 16.1655 -9.78218 377.602 -38.1212 2.37036
lowerback -3.79079 -5.559 2.53504
upperback -7.32548 -7.51828 1.44126
thorax -5.6283 -3.90181 0.198694
lowerneck -14.4292 -5.47574 -7.39318
upperneck 31.8123 -9.41606 8.32213
head 14.0206 -4.13272 3.01273
rclavicle -7.90914e-014 -8.94531e-015
rhumerus -62.8398 50.4081 -85.0857
rradius 46.0792
rwrist -8.21174
rhand 27.0184 6.47311
rfingers 7.12502
rthumb 51.0075 -14.2041
lclavicle -7.90914e-014 -8.94531e-015
lhumerus -172.337 -118.389 240.84
lradius 40.7153
lwrist 12.8761
lhand 14.7801 30.5228
lfingers 7.12502
lthumb 39.6446 55.8551
rfemur 132.485 -218.493 -168.369
rtibia 49.8574
rfoot -18.7055 -17.3188
rtoes -10.8773
lfemur -50.376 -7.75769 -0.363108
ltibia 45.7284
lfoot -16.6394 16.8051
ltoes -17.3782
258
root -7.287 16.1562 -9.62043 377.93 -42.9393 2.13593
lowerback -3.27718 -5.30349 2.84487
upperback -7.28298 -7.17434 1.31267
thorax -5.92276 -3.75271 -0.0526314
lowerneck -14.2556 -6.31215 -8.58704
upperneck 31.266 -10.6751 9.3396
head 14.0361 -4.71622 3.39575
rclavicle 6.74377e-014 -2.5842e-014
rhumerus -63.6003 52.9607 -87.2676
rradius 51.6862
rwrist -8.41602
rhand 29.1601 3.79779
rfingers 7.12502
rthumb 52.9503 -15.726
lclavicle 6.74377e-014 -2.5842e-014
lhumerus -173.741 -116.529 242.621
lradius 44.6564
lwrist 18.2295
lhand 18.31 29.1304
lfingers 7.12502
lthumb 42.9576 53.3913
rfemur 131.445 -220.529 -169.527
rtibia 50.5092
rfoot -18.7102 -16.1905
rtoes -11.6841
lfemur -50.4739 -8.71921 -0.0828458
ltibia 46.444
lfoot -17.1079 16.0707
ltoes -19.2712
